<?xml version="1.0" standalone="no"?>
<!DOCTYPE svg PUBLIC "-//W3C//DTD SVG 20010904//EN"
 "http://www.w3.org/TR/2001/REC-SVG-20010904/DTD/svg10.dtd">
<svg version="1.0" xmlns="http://www.w3.org/2000/svg"
 width="128.000000pt" height="128.000000pt" viewBox="0 0 128.000000 128.000000"
 preserveAspectRatio="xMidYMid meet">
<metadata>
Created by potrace 1.16, written by Peter Selinger 2001-2019
</metadata>
<g transform="translate(0.000000,128.000000) scale(0.100000,-0.100000)"
fill="#000000" stroke="none">
<path d="M344 1201 c-161 -26 -237 -99 -264 -253 -7 -41 -10 -166 -8 -349 5
-335 10 -362 88 -440 79 -79 106 -84 480 -84 374 0 401 5 480 84 78 78 83 105
88 440 2 183 -1 308 -8 349 -22 129 -83 203 -194 239 -41 13 -104 17 -331 19
-154 1 -303 -1 -331 -5z m447 -161 c285 -108 369 -470 161 -693 -58 -61 -103
-90 -181 -117 -207 -69 -440 38 -532 245 -47 106 -35 276 27 381 31 53 118
136 172 163 107 55 244 63 353 21z"/>
<path d="M386 829 c-14 -11 -26 -30 -26 -43 0 -12 51 -112 114 -221 123 -216
143 -238 192 -213 34 17 256 402 252 437 -2 13 -16 33 -31 45 -26 19 -30 19
-54 6 -42 -24 -49 -42 -34 -99 23 -92 -23 -161 -109 -161 -58 0 -90 29 -150
135 -53 93 -88 135 -115 135 -7 0 -24 -9 -39 -21z"/>
</g>
</svg>
